<?xml version="1.0" standalone="no"?>
<!DOCTYPE svg PUBLIC "-//W3C//DTD SVG 20010904//EN"
 "http://www.w3.org/TR/2001/REC-SVG-20010904/DTD/svg10.dtd">
<svg version="1.0" xmlns="http://www.w3.org/2000/svg"
 width="937.000000pt" height="937.000000pt" viewBox="0 0 937.000000 937.000000"
 preserveAspectRatio="xMidYMid meet">

<g transform="translate(0.000000,937.000000) scale(0.100000,-0.100000)"
fill="#000000" stroke="none">
<path d="M2765 7065 c-184 -22 -295 -42 -653 -121 -290 -64 -550 -131 -598
-154 -50 -25 -141 -114 -187 -183 -19 -29 -79 -144 -132 -257 -194 -408 -395
-841 -409 -884 -27 -78 -36 -205 -36 -487 0 -152 -3 -303 -6 -336 l-7 -61 -86
-7 c-47 -4 -91 -11 -98 -17 -30 -24 -27 -172 3 -203 11 -10 36 -15 80 -15 36
0 80 -6 98 -14 28 -12 35 -21 40 -53 59 -384 87 -457 208 -548 84 -63 181 -84
390 -85 186 0 237 32 315 199 l35 73 46 -7 c26 -3 90 -15 142 -25 52 -10 147
-28 210 -40 63 -12 149 -28 190 -36 125 -23 543 -101 745 -138 105 -20 217
-38 249 -42 85 -10 112 -38 175 -180 60 -137 114 -217 205 -301 164 -154 358
-223 626 -223 140 0 250 17 375 56 90 29 230 96 299 143 70 49 164 89 220 96
28 3 245 -1 481 -9 237 -9 615 -21 840 -27 226 -6 420 -12 432 -15 12 -2 41
-23 65 -46 164 -158 434 -231 738 -199 134 13 205 32 305 81 159 76 289 212
382 398 l57 112 50 0 c28 0 165 2 304 3 l254 2 23 27 c60 70 60 285 0 324 -29
19 -119 31 -287 40 -71 3 -133 11 -142 17 -13 11 -8 52 39 334 l54 322 -28 54
c-28 53 -28 58 -23 168 4 104 2 119 -18 168 -41 93 -106 125 -400 191 -202 46
-630 137 -845 180 -618 124 -750 152 -774 165 -73 37 -238 257 -366 485 -163
292 -268 447 -344 508 -49 39 -127 76 -292 137 -577 215 -1349 375 -2074 430
-233 18 -717 18 -870 0z m1190 -170 c362 -41 694 -95 995 -163 47 -11 139 -32
205 -47 560 -126 745 -189 824 -283 49 -57 493 -751 495 -772 1 -19 -90 -17
-219 6 -279 49 -709 97 -1110 124 -258 17 -723 49 -885 60 -546 36 -618 50
-698 129 -63 63 -83 128 -177 569 -61 287 -59 329 15 380 35 24 37 24 225 19
105 -3 253 -13 330 -22z m-942 -103 c28 -26 49 -96 91 -299 39 -187 96 -539
96 -594 0 -42 -3 -49 -22 -54 -13 -3 -250 -4 -528 -3 l-505 3 -3 56 c-3 56 20
167 119 577 66 276 85 296 309 321 52 6 109 13 125 15 17 2 89 3 162 2 123 -1
133 -2 156 -24z m-855 -71 c11 -6 11 -20 2 -72 -38 -212 -121 -600 -146 -684
-46 -152 -61 -161 -272 -175 -184 -12 -512 -13 -531 -1 -17 11 -10 53 25 166
74 233 263 609 326 648 25 16 262 76 398 101 47 8 94 17 105 20 36 7 80 6 93
-3z m52 -1361 c107 -5 265 -14 350 -20 85 -6 241 -15 345 -20 426 -22 925 -54
1013 -66 23 -3 42 -10 42 -16 0 -8 -99 -9 -337 -4 -625 12 -1706 45 -1803 55
-62 6 -65 7 -68 34 -7 60 -4 61 136 53 70 -3 215 -11 322 -16z m3652 -63 c65
-7 123 -18 128 -23 7 -7 10 -46 8 -95 l-3 -84 -90 3 c-158 6 -357 29 -366 44
-5 7 -9 41 -9 75 0 52 4 66 23 84 20 19 29 21 107 15 47 -3 138 -12 202 -19z
m653 -132 c412 -42 438 -45 510 -54 39 -6 99 -13 135 -16 36 -3 92 -10 125
-15 33 -6 128 -19 210 -30 569 -74 785 -108 785 -122 0 -12 -49 -10 -240 12
-317 37 -433 50 -615 70 -254 28 -334 37 -555 65 -473 61 -710 96 -710 107 0
14 105 9 355 -17z m-5372 -69 c71 -29 155 -161 212 -332 30 -91 42 -164 28
-164 -5 0 -29 49 -53 110 -80 205 -152 290 -247 290 -88 -1 -156 -73 -208
-222 -47 -135 -76 -126 -40 14 45 170 129 285 229 308 45 11 44 11 79 -4z
m3100 -87 c184 -61 275 -163 432 -484 94 -192 160 -374 177 -492 17 -118 -13
-287 -77 -438 -49 -113 -159 -241 -258 -299 -168 -99 -411 -112 -579 -32 -196
94 -335 311 -367 575 -32 252 88 584 266 741 111 98 215 134 383 134 122 0
174 -10 254 -50 27 -14 51 -22 53 -20 6 6 -28 56 -84 123 -54 65 -170 143
-246 167 -45 14 -82 17 -166 14 -101 -3 -112 -6 -185 -41 -138 -69 -251 -194
-366 -407 -72 -134 -77 -140 -86 -115 -17 43 60 219 147 336 61 83 178 195
244 233 129 76 325 100 458 55z m4237 -39 c52 -7 103 -16 113 -22 27 -14 38
-53 31 -114 l-7 -54 -36 1 c-20 0 -83 8 -141 17 l-105 18 -3 79 c-3 80 5 99
38 90 8 -2 58 -9 110 -15z m-7277 -103 c37 -24 77 -112 98 -210 27 -132 27
-414 -1 -547 -26 -125 -78 -231 -132 -271 -58 -41 -124 -41 -172 1 -76 67
-117 236 -118 483 -1 142 2 175 25 264 40 158 97 254 172 289 35 17 96 12 128
-9z m4649 -36 c40 -15 97 -83 120 -141 12 -30 23 -86 26 -123 9 -131 -77 -296
-172 -332 -100 -39 -227 16 -279 120 -44 90 -47 223 -6 310 27 58 90 125 145
154 42 22 125 28 166 12z m503 -76 c93 -8 222 -20 285 -26 180 -16 429 -38
625 -54 99 -8 281 -24 405 -34 124 -11 308 -27 410 -36 203 -17 220 -20 220
-40 0 -27 34 -29 -780 40 -96 9 -366 31 -600 50 -911 75 -830 66 -830 95 0 25
30 26 265 5z m50 -115 c138 -11 309 -25 380 -30 72 -5 177 -14 235 -20 58 -5
166 -14 240 -20 126 -9 567 -44 882 -71 136 -12 174 -24 146 -46 -9 -7 -89 -4
-248 8 -129 10 -354 28 -500 39 -146 11 -348 27 -450 35 -102 8 -243 19 -315
25 -71 5 -188 14 -260 20 -455 36 -425 32 -425 61 0 24 0 24 315 -1z m2142
-92 c28 -27 53 -105 53 -169 0 -55 -27 -204 -42 -234 -24 -46 -51 -65 -91 -65
-32 0 -46 6 -73 35 -18 20 -37 52 -41 73 -12 58 -9 233 6 275 15 44 56 95 85
108 30 12 76 2 103 -23z m-2087 -18 c157 -11 346 -24 420 -30 74 -6 234 -17
355 -26 238 -16 513 -35 834 -58 200 -14 238 -23 213 -48 -12 -12 -7 -13 -592
27 -118 8 -321 21 -450 30 -129 8 -293 19 -365 25 -71 5 -272 19 -445 30 -173
11 -325 22 -337 25 -15 3 -23 13 -23 25 0 26 21 26 390 0z m20 -105 c124 -9
324 -22 445 -30 121 -8 256 -17 300 -20 245 -15 556 -36 670 -45 72 -5 183
-13 248 -16 89 -5 120 -10 124 -21 12 -31 -14 -33 -242 -18 -231 15 -641 41
-790 50 -831 51 -1169 75 -1178 84 -5 5 -7 17 -3 27 6 15 18 16 104 10 53 -4
198 -13 322 -21z m-120 -95 c91 -6 269 -17 395 -25 127 -8 282 -17 345 -20 63
-3 176 -10 250 -16 162 -11 612 -39 765 -46 123 -6 154 -15 133 -40 -11 -13
-28 -15 -108 -9 -52 4 -212 13 -355 21 -143 8 -341 20 -440 26 -99 6 -431 25
-738 43 -576 34 -596 36 -565 73 8 10 30 12 82 8 39 -2 145 -9 236 -15z m-55
-100 c72 -5 184 -12 250 -15 66 -3 174 -10 240 -15 66 -6 199 -14 295 -20 96
-5 315 -19 485 -30 171 -11 384 -24 475 -30 169 -11 200 -15 200 -29 0 -26
-33 -29 -240 -16 -118 8 -372 23 -565 35 -192 11 -456 27 -585 35 -129 8 -314
19 -410 25 -429 25 -420 24 -420 49 0 28 9 31 79 26 36 -3 125 -9 196 -15z
m-1261 -230 c39 -108 70 -156 119 -184 58 -34 129 -44 365 -52 220 -7 229 -10
176 -59 -32 -30 -57 -31 -326 -10 -202 15 -262 31 -292 77 -17 26 -85 217 -93
260 -6 33 4 65 16 52 4 -5 20 -43 35 -84z m1191 25 c182 -8 411 -19 510 -25
99 -5 268 -15 375 -20 800 -43 1323 -80 1560 -109 41 -6 109 -13 150 -16 94
-8 115 -14 102 -27 -11 -11 -252 -13 -357 -3 -33 3 -224 14 -425 25 -355 19
-619 35 -1100 65 -129 8 -273 17 -320 20 -529 32 -930 71 -953 94 -15 15 52
14 458 -4z m-148 -280 c231 -8 1124 -47 1483 -65 113 -5 300 -15 415 -20 622
-30 799 -41 889 -56 115 -18 128 -22 123 -38 -2 -6 -22 -10 -48 -9 -24 2 -177
7 -339 13 -162 6 -452 17 -645 25 -192 8 -411 17 -485 20 -875 36 -1562 66
-1633 71 -98 7 -119 22 -78 56 19 15 35 17 90 13 36 -2 139 -7 228 -10z"/>
<path d="M4114 4261 c-134 -61 -204 -208 -175 -370 29 -160 130 -261 261 -261
76 0 139 30 199 95 63 68 84 123 89 230 5 109 -19 184 -76 244 -70 73 -210
102 -298 62z"/>
<path d="M1066 4568 c-50 -77 -71 -195 -56 -311 30 -226 129 -234 174 -15 30
146 18 285 -29 332 -24 24 -72 20 -89 -6z"/>
</g>
</svg>
