<?xml version="1.0" standalone="no"?>
<!DOCTYPE svg PUBLIC "-//W3C//DTD SVG 20010904//EN"
 "http://www.w3.org/TR/2001/REC-SVG-20010904/DTD/svg10.dtd">
<svg version="1.0" xmlns="http://www.w3.org/2000/svg"
 width="1920.000000pt" height="1920.000000pt" viewBox="0 0 1920.000000 1920.000000"
 preserveAspectRatio="xMidYMid meet">

<g transform="translate(0.000000,1920.000000) scale(0.100000,-0.100000)"
fill="#000000" stroke="none">
<path d="M1010 10665 c-74 -13 -222 -45 -329 -71 l-194 -46 -46 -47 c-49 -49
-84 -116 -238 -449 -52 -113 -88 -205 -94 -240 -5 -31 -9 -132 -9 -224 l0
-167 -47 -3 -48 -3 0 -60 0 -60 48 -3 c56 -4 59 -9 77 -123 25 -156 79 -213
219 -229 134 -15 180 1 223 77 16 29 37 53 45 53 12 0 399 -71 708 -129 28 -5
67 -12 88 -16 36 -6 40 -10 77 -88 21 -45 55 -101 74 -123 139 -162 420 -191
646 -67 154 84 84 77 588 63 246 -6 456 -16 467 -21 11 -5 39 -25 63 -44 70
-56 159 -78 300 -73 107 3 123 6 185 35 85 40 162 117 202 201 l30 62 151 0
c186 0 187 1 192 98 4 65 2 71 -19 85 -15 9 -63 18 -121 22 -116 9 -108 -12
-73 199 21 131 23 150 10 170 -10 14 -14 43 -12 81 3 78 -16 121 -62 144 -49
25 -266 74 -803 182 -81 16 -159 34 -173 41 -32 15 -109 116 -172 227 -79 138
-159 255 -191 278 -74 54 -385 154 -647 208 -418 86 -838 108 -1115 60z m620
-65 c280 -24 498 -62 839 -146 181 -44 260 -74 292 -110 24 -27 249 -384 249
-395 0 -11 8 -12 -91 5 -215 37 -414 55 -954 91 -441 29 -442 29 -483 205 -70
292 -72 329 -20 350 30 12 33 12 168 0z m-372 -62 c18 -23 92 -391 92 -459 0
-18 -10 -19 -270 -19 l-270 0 0 23 c0 12 20 107 45 212 51 215 59 229 139 243
80 15 252 14 264 0z m-438 -51 c0 -19 -56 -291 -73 -355 -8 -30 -21 -61 -30
-69 -23 -23 -88 -32 -239 -33 l-138 0 0 24 c0 58 126 342 169 380 9 9 62 27
116 40 114 28 195 33 195 13z m125 -682 c569 -32 652 -37 705 -45 34 -6 -42
-7 -205 -4 -403 7 -819 24 -829 34 -15 15 4 30 37 30 18 0 149 -7 292 -15z
m1803 -32 c19 -4 22 -12 22 -50 l0 -46 -82 7 c-146 12 -148 13 -148 55 0 21 3
41 8 45 7 8 156 -1 200 -11z m318 -63 c43 -5 142 -16 219 -25 239 -27 627 -83
635 -92 3 -3 -13 -3 -35 1 -45 7 -261 31 -405 46 -129 14 -563 70 -575 74 -20
8 84 6 161 -4z m-2733 -55 c30 -31 65 -101 83 -170 17 -64 12 -68 -11 -8 -42
115 -101 172 -154 151 -40 -15 -59 -36 -77 -87 -21 -56 -38 -78 -28 -36 33
144 122 215 187 150z m1587 -40 c25 -13 57 -36 72 -52 67 -71 180 -314 193
-418 22 -164 -81 -355 -216 -400 -152 -52 -297 0 -376 135 -112 189 -31 498
150 581 58 26 186 26 245 -1 23 -10 42 -15 42 -9 0 22 -98 113 -145 135 -86
41 -192 26 -268 -37 -40 -33 -99 -115 -137 -189 -13 -25 -25 -39 -28 -32 -8
24 66 158 115 210 102 106 236 136 353 77z m2166 -12 c17 -6 23 -25 17 -57 -5
-26 -8 -27 -47 -21 -99 15 -96 13 -96 57 l0 40 57 -7 c31 -4 62 -9 69 -12z
m-3737 -58 c28 -36 41 -110 41 -232 0 -127 -20 -210 -61 -254 -38 -41 -84 -38
-115 9 -46 68 -56 273 -19 391 31 101 108 143 154 86z m2370 -21 c51 -43 65
-128 32 -200 -26 -56 -58 -84 -97 -84 -81 0 -119 46 -119 145 0 80 21 121 77
148 46 23 72 21 107 -9z m386 -34 c55 -5 264 -24 465 -41 201 -17 367 -33 369
-35 13 -12 -18 -14 -120 -4 -182 17 -956 80 -979 80 -11 0 -20 5 -20 11 0 12
70 9 285 -11z m-5 -55 c96 -8 324 -26 505 -41 182 -15 332 -28 334 -30 15 -13
-45 -11 -390 16 -211 17 -447 35 -524 40 -166 12 -205 18 -205 31 0 5 22 7 53
4 28 -3 131 -12 227 -20z m978 -55 c15 -30 10 -141 -9 -183 -16 -35 -61 -37
-83 -5 -25 36 -22 158 5 192 27 34 68 32 87 -4z m-936 0 c156 -11 342 -24 413
-30 72 -5 180 -13 240 -16 61 -4 117 -10 125 -15 20 -11 -67 -11 -210 1 -63 5
-189 14 -280 20 -91 6 -262 17 -380 25 -118 8 -221 15 -227 15 -7 0 -13 5 -13
10 0 13 5 13 332 -10z m33 -55 c127 -8 293 -20 370 -25 77 -5 193 -13 258 -16
65 -4 120 -12 124 -17 4 -7 -29 -8 -98 -4 -227 15 -583 37 -749 47 -224 13
-282 19 -275 31 4 5 36 7 73 4 37 -3 171 -12 297 -20z m60 -55 c445 -26 669
-41 674 -46 13 -12 -21 -13 -150 -5 -79 6 -319 20 -534 31 -214 12 -400 23
-413 26 -40 8 -14 21 35 18 26 -2 201 -13 388 -24z m-220 -39 c538 -31 862
-54 880 -61 17 -7 16 -9 -10 -9 -16 -1 -140 6 -275 14 -135 8 -369 21 -520 30
-151 9 -281 18 -288 21 -21 7 -5 22 20 18 13 -2 100 -8 193 -13z m-735 -93 c0
-7 9 -31 21 -55 31 -63 61 -75 207 -81 67 -3 122 -8 122 -12 0 -4 -6 -13 -14
-19 -17 -14 -252 1 -284 18 -11 6 -31 42 -46 83 -29 80 -31 92 -16 83 6 -3 10
-11 10 -17z m672 -8 c95 -5 306 -16 468 -25 353 -19 765 -52 806 -65 42 -14
-127 -6 -1056 50 -208 13 -492 38 -498 45 -8 8 91 6 280 -5z m-52 -145 c479
-14 1336 -60 1370 -74 24 -9 23 -10 -10 -10 -19 -1 -192 6 -385 14 -192 8
-471 19 -620 25 -413 17 -596 27 -602 33 -11 12 9 27 30 23 12 -3 110 -7 217
-11z"/>
<path d="M1815 9256 c-86 -38 -120 -146 -75 -243 68 -152 270 -77 270 100 0
62 -27 108 -80 135 -50 25 -73 27 -115 8z"/>
<path d="M266 9415 c-24 -24 -39 -94 -33 -153 6 -57 31 -106 50 -100 46 15 71
204 33 247 -23 25 -30 26 -50 6z"/>
<path d="M5195 10504 c-142 -30 -276 -103 -399 -215 -124 -114 -209 -260 -247
-426 -29 -125 -24 -338 11 -448 74 -235 241 -426 463 -530 142 -67 152 -69
575 -73 l382 -3 0 260 0 261 -287 0 c-159 0 -316 4 -350 9 -229 34 -354 273
-250 477 34 65 89 117 162 151 l60 28 333 3 332 4 0 259 0 259 -357 -1 c-275
0 -374 -4 -428 -15z"/>
<path d="M6401 9678 c-157 -464 -287 -849 -289 -856 -3 -10 53 -12 274 -10
l277 3 31 90 c17 50 35 96 39 103 6 9 80 12 297 12 217 0 291 -3 297 -12 4 -7
22 -53 39 -103 l31 -90 277 -3 c233 -2 277 0 274 12 -2 7 -131 392 -288 855
l-284 841 -346 0 -345 0 -284 -842z m799 -280 c0 -5 -76 -8 -170 -8 -93 0
-170 1 -170 3 0 5 148 443 160 472 11 29 16 19 96 -215 46 -135 84 -248 84
-252z"/>
<path d="M8080 9665 l0 -855 265 0 265 0 0 270 c0 149 3 270 7 270 4 0 111
-103 238 -229 212 -210 236 -231 310 -267 l80 -39 238 -3 237 -3 0 259 0 260
-152 4 c-118 3 -160 8 -185 21 -37 20 -63 59 -44 65 6 2 38 22 71 44 156 104
259 293 260 481 l0 58 88 -3 87 -3 3 -592 2 -593 260 0 260 0 2 328 3 327 398
3 397 2 0 195 0 195 -397 2 -398 3 0 65 0 65 528 3 527 2 0 260 0 260 -885 0
-885 0 0 -217 0 -218 -24 57 c-72 176 -196 295 -368 352 l-77 26 -555 0 -556
0 0 -855z m997 392 c46 -24 66 -69 61 -129 -6 -58 -35 -93 -87 -108 -20 -5
-127 -10 -238 -10 l-203 0 0 128 c0 71 3 132 8 136 4 5 102 6 217 4 174 -3
216 -7 242 -21z"/>
<path d="M11550 9665 l0 -855 265 0 265 0 0 855 0 855 -265 0 -265 0 0 -855z"/>
<path d="M12210 9667 l0 -857 260 0 260 0 2 433 3 432 40 -3 c59 -4 123 -30
191 -78 172 -121 273 -353 290 -666 l7 -118 264 0 263 0 0 855 0 855 -265 0
-265 0 -2 -214 -3 -215 -45 57 c-154 194 -527 351 -872 369 l-128 6 0 -856z"/>
<path d="M13910 9665 l0 -856 453 3 452 3 100 35 c126 43 245 121 347 228 137
143 207 297 229 497 21 194 -24 394 -123 544 -113 174 -286 306 -483 372 -68
23 -80 23 -522 27 l-453 3 0 -856z m773 325 c79 -13 139 -45 193 -102 66 -71
88 -126 88 -223 0 -97 -28 -168 -93 -232 -78 -77 -181 -107 -348 -101 l-78 3
-3 320 c-1 176 0 325 3 332 5 16 151 18 238 3z"/>
<path d="M15620 9665 l0 -855 790 0 790 0 0 260 0 260 -525 0 -525 0 0 70 0
70 395 0 395 0 0 195 0 195 -395 0 -395 0 0 70 0 70 525 0 525 0 0 260 0 260
-790 0 -790 0 0 -855z"/>
<path d="M17320 9665 l0 -855 265 0 265 0 0 277 0 277 238 -236 c218 -217 243
-238 317 -274 l80 -39 238 -3 237 -3 0 259 0 260 -152 4 c-120 3 -160 7 -185
21 -37 20 -63 59 -44 65 6 2 38 22 71 44 239 159 328 485 201 736 -70 138
-203 252 -347 298 l-75 24 -554 0 -555 0 0 -855z m997 392 c46 -24 66 -69 61
-129 -6 -58 -35 -93 -87 -108 -20 -5 -127 -10 -238 -10 l-203 0 0 128 c0 71 3
132 8 136 4 5 102 6 217 4 174 -3 216 -7 242 -21z"/>
</g>
</svg>
