<?xml version="1.0" standalone="no"?>
<!DOCTYPE svg PUBLIC "-//W3C//DTD SVG 20010904//EN"
 "http://www.w3.org/TR/2001/REC-SVG-20010904/DTD/svg10.dtd">
<svg version="1.0" xmlns="http://www.w3.org/2000/svg"
 width="1920.000000pt" height="1920.000000pt" viewBox="0 0 1920.000000 1920.000000"
 preserveAspectRatio="xMidYMid meet">

<g transform="translate(0.000000,1920.000000) scale(0.100000,-0.100000)"
fill="#000000" stroke="none">
<path d="M3535 11684 c-332 -21 -583 -66 -1174 -210 -276 -67 -316 -82 -384
-149 -99 -97 -128 -149 -379 -685 -17 -36 -49 -103 -70 -150 -136 -290 -198
-429 -209 -472 -6 -24 -14 -213 -19 -428 -5 -212 -9 -391 -9 -397 -1 -9 -24
-13 -80 -13 -114 0 -126 -12 -126 -123 0 -115 8 -123 121 -129 55 -3 90 -9 99
-19 8 -8 23 -72 35 -149 38 -246 69 -328 156 -410 78 -74 135 -97 279 -111 66
-6 158 -9 205 -7 139 8 187 43 261 190 25 49 45 78 56 78 9 0 169 -29 357 -65
188 -35 404 -76 481 -90 557 -103 736 -135 757 -135 50 0 82 -41 139 -180 68
-167 168 -286 319 -385 143 -93 300 -135 509 -135 246 0 464 63 671 194 161
102 157 101 380 99 107 0 400 -8 650 -17 250 -9 569 -19 709 -23 l254 -6 63
-57 c176 -159 452 -227 759 -186 67 9 145 24 176 34 217 75 376 222 494 457
l50 100 310 5 c171 3 311 7 313 8 2 1 12 23 24 49 26 60 35 192 16 247 -22 67
-51 77 -256 89 -193 11 -226 17 -218 45 2 9 10 49 16 87 6 39 28 176 50 304
l39 235 -31 63 c-22 47 -28 70 -23 93 4 16 7 66 7 109 0 122 -45 201 -137 242
-96 43 -544 142 -1524 339 -194 39 -366 77 -380 85 -44 22 -151 143 -223 250
-36 55 -112 181 -169 280 -177 310 -276 444 -373 500 -137 79 -624 240 -991
326 -434 102 -882 172 -1305 204 -194 15 -572 25 -675 19z m725 -179 c373 -18
852 -92 1415 -221 487 -112 679 -166 771 -219 68 -40 113 -99 329 -440 115
-181 220 -345 232 -364 40 -59 34 -60 -242 -15 -270 43 -641 85 -965 108 -289
21 -711 50 -965 66 -285 18 -530 42 -584 57 -135 37 -188 110 -236 323 -7 30
-24 109 -39 175 -15 66 -31 139 -36 161 -36 155 -48 244 -39 280 20 70 89 106
189 98 25 -2 101 -6 170 -9z m-712 -106 c31 -12 48 -55 88 -233 41 -183 114
-612 114 -671 l0 -42 -46 -7 c-60 -8 -442 -8 -756 1 l-248 6 0 54 c0 46 68
364 139 648 22 88 52 153 84 183 36 34 148 52 467 75 54 4 126 -2 158 -14z
m-834 -87 c9 -15 -90 -516 -139 -702 -36 -138 -52 -168 -99 -192 -36 -18 -70
-22 -321 -31 -154 -5 -306 -7 -339 -3 l-58 8 6 41 c16 101 85 281 187 485 59
117 119 228 133 246 30 40 50 47 287 100 231 53 331 67 343 48z m256 -1372
c190 -11 464 -27 610 -35 563 -32 884 -55 894 -65 11 -11 -266 -7 -1084 16
-696 19 -1059 32 -1071 39 -5 4 -9 22 -9 42 l0 36 158 -7 c86 -4 312 -16 502
-26z m3394 -45 c207 -23 186 -11 186 -109 0 -59 -4 -86 -12 -89 -21 -7 -422
28 -439 39 -16 9 -10 128 7 152 19 27 59 28 258 7z m731 -140 c72 -8 218 -23
325 -35 199 -22 407 -47 605 -75 61 -8 180 -24 265 -36 153 -20 262 -35 433
-59 97 -14 124 -37 30 -26 -32 4 -115 14 -185 22 -71 8 -185 20 -255 28 -71 8
-173 20 -228 26 -442 47 -1169 141 -1320 170 -74 14 166 3 330 -15z m-5374
-79 c36 -25 89 -96 126 -171 28 -55 82 -222 89 -270 l5 -40 -15 30 c-9 17 -32
70 -52 118 -94 225 -192 299 -313 238 -61 -32 -129 -139 -146 -234 -4 -20 -13
-44 -21 -54 -12 -16 -13 -15 -14 12 -1 82 68 250 129 318 40 45 101 76 146 77
17 0 47 -11 66 -24z m3014 -61 c130 -25 240 -91 313 -189 140 -187 307 -556
346 -766 13 -65 14 -100 6 -169 -38 -334 -200 -565 -454 -647 -68 -22 -100
-26 -201 -27 -129 0 -203 17 -290 68 -180 104 -310 338 -331 594 -12 146 41
355 130 516 52 93 181 222 258 258 169 79 401 74 539 -12 56 -34 61 -25 21 34
-143 211 -327 305 -539 275 -112 -15 -192 -59 -294 -160 -91 -91 -148 -170
-225 -317 -27 -51 -53 -93 -58 -93 -18 0 6 88 49 177 76 156 197 300 317 377
74 47 121 66 203 81 93 18 120 18 210 0z m4345 -61 c41 -8 78 -20 82 -27 4 -6
8 -42 8 -79 0 -63 -2 -68 -21 -68 -22 0 -224 29 -246 36 -13 3 -19 144 -7 157
8 8 89 -1 184 -19z m-7310 -110 c66 -70 100 -226 100 -464 0 -349 -91 -570
-235 -570 -71 0 -117 47 -154 156 -32 95 -41 176 -41 360 0 149 3 184 24 268
50 196 131 293 235 283 31 -4 51 -13 71 -33z m4640 -26 c75 -38 124 -128 137
-249 11 -109 -69 -283 -150 -326 -45 -24 -131 -22 -183 5 -51 26 -106 89 -123
139 -6 21 -14 72 -18 113 -7 104 20 174 96 251 86 85 162 106 241 67z m495
-73 c105 -8 267 -22 360 -30 94 -8 249 -22 345 -30 96 -8 279 -24 405 -35 127
-11 284 -25 350 -30 66 -5 192 -17 280 -25 88 -8 170 -15 183 -15 13 0 22 -6
22 -15 0 -18 -50 -19 -210 -5 -58 5 -166 14 -240 20 -74 6 -209 17 -300 25
-91 8 -248 21 -350 29 -473 39 -576 47 -730 61 -91 8 -206 18 -257 21 -101 7
-119 14 -109 39 4 12 13 15 33 11 16 -3 114 -13 218 -21z m23 -110 c352 -30
539 -45 667 -55 429 -34 510 -40 605 -49 58 -6 202 -18 320 -26 277 -21 322
-27 328 -42 6 -20 -11 -20 -598 27 -146 11 -321 25 -390 30 -212 15 -509 39
-630 49 -63 6 -149 13 -190 15 -156 11 -346 27 -367 32 -13 2 -23 11 -23 19 0
19 49 19 278 0z m2179 -99 c22 -26 43 -103 43 -159 0 -54 -30 -209 -47 -241
-35 -67 -95 -76 -148 -23 -69 69 -75 301 -10 401 39 60 119 71 162 22z m-2232
-6 c83 -6 310 -22 505 -35 195 -14 425 -30 510 -35 85 -6 245 -17 355 -25 110
-8 268 -19 350 -25 214 -15 235 -18 235 -37 0 -17 -45 -16 -335 7 -140 11
-375 27 -595 40 -85 5 -216 14 -290 20 -74 6 -200 15 -280 19 -420 26 -681 46
-692 52 -6 4 -8 14 -5 24 6 13 16 15 49 11 24 -3 111 -10 193 -16z m95 -110
c85 -5 225 -14 310 -20 476 -33 584 -40 675 -45 55 -3 156 -10 225 -15 69 -5
238 -17 375 -26 138 -9 254 -20 259 -25 25 -23 -20 -26 -209 -14 -110 8 -355
23 -545 34 -190 12 -403 26 -475 31 -71 5 -179 12 -240 15 -60 3 -207 13 -325
20 -118 8 -257 17 -307 21 -91 6 -111 13 -97 35 5 8 36 9 103 5 53 -4 166 -11
251 -16z m135 -110 c182 -11 439 -27 573 -35 133 -8 353 -22 490 -30 687 -42
632 -37 632 -62 0 -14 -9 -15 -72 -9 -40 4 -156 11 -258 16 -102 6 -295 17
-430 25 -245 15 -556 33 -1045 60 -143 8 -289 17 -323 19 -65 4 -90 15 -78 35
5 7 38 9 94 6 48 -3 236 -14 417 -25z m-205 -91 c80 -5 255 -16 390 -25 550
-33 722 -44 865 -54 267 -18 600 -40 618 -40 9 0 17 -7 17 -17 0 -19 -25 -18
-585 16 -181 11 -413 25 -515 31 -102 5 -210 12 -240 15 -30 3 -176 12 -325
21 -458 26 -525 31 -531 37 -4 3 -4 13 -1 21 6 16 12 16 307 -5z m-1306 -229
c43 -121 95 -183 176 -208 42 -14 411 -36 454 -28 42 8 61 -5 47 -31 -23 -44
-55 -47 -298 -29 -242 18 -296 30 -327 78 -24 37 -96 247 -96 281 0 44 14 25
44 -63z m1246 25 c168 -8 386 -19 485 -25 99 -6 304 -17 455 -25 703 -37 948
-54 1320 -91 140 -14 283 -28 318 -31 40 -4 59 -9 50 -14 -18 -12 -172 -11
-386 1 -97 6 -296 17 -442 25 -146 9 -373 22 -505 30 -132 8 -391 24 -575 35
-184 11 -393 24 -465 30 -71 5 -175 12 -230 15 -138 8 -464 44 -500 54 -48 15
131 13 475 -4z m-30 -286 c129 -5 341 -14 470 -19 350 -14 1305 -60 1785 -85
154 -8 324 -23 378 -32 99 -17 136 -33 75 -33 -58 0 -834 29 -1063 40 -121 5
-395 17 -610 25 -214 9 -484 20 -600 25 -115 6 -338 15 -495 21 -432 16 -466
21 -426 62 16 16 33 16 486 -4z"/>
<path d="M4703 8876 c-129 -41 -208 -144 -220 -285 -13 -155 65 -308 183 -357
41 -17 133 -18 171 -2 51 22 123 79 152 122 90 131 80 349 -21 447 -66 64
-189 99 -265 75z"/>
<path d="M1637 9189 c-39 -23 -87 -165 -87 -261 0 -52 24 -179 40 -209 18 -33
56 -52 79 -39 50 26 91 174 91 323 0 91 -21 153 -61 181 -27 18 -37 19 -62 5z"/>
<path d="M10670 10115 l-125 -94 -182 -443 c-100 -244 -201 -489 -224 -545
l-42 -102 53 -81 53 -80 249 0 249 0 117 79 118 79 48 118 c27 66 51 125 53
132 4 10 -30 12 -163 10 l-167 -3 -50 -122 -50 -123 -84 0 c-76 0 -84 2 -79
18 4 9 104 256 224 547 l217 530 83 3 c49 2 82 -1 82 -7 0 -6 -20 -59 -45
-120 -25 -60 -45 -112 -45 -116 0 -3 75 -4 166 -3 l165 3 50 120 c27 66 49
125 49 131 0 6 -22 46 -50 88 l-50 76 -247 0 -248 0 -125 -95z"/>
<path d="M13582 10198 c-12 -15 -582 -1404 -582 -1418 0 -6 64 -10 163 -10
l163 0 50 123 50 122 84 5 84 5 33 75 c17 41 32 78 32 83 1 4 -32 7 -73 7 -41
0 -77 3 -79 8 -2 4 73 194 167 422 l171 415 83 3 c46 2 82 -1 82 -6 0 -6 -20
-59 -45 -118 -25 -60 -45 -112 -45 -117 0 -4 75 -6 166 -5 l165 3 50 120 c93
225 109 266 109 280 0 13 -55 15 -409 15 -315 0 -411 -3 -419 -12z"/>
<path d="M14546 10111 c-11 -17 -96 -224 -96 -232 0 -5 74 -9 164 -9 l164 0
32 78 c18 42 41 97 51 121 10 24 19 45 19 47 0 9 -329 3 -334 -5z"/>
<path d="M16509 10013 c-23 -60 -55 -136 -70 -170 l-28 -63 -252 -2 -252 -3
-203 -495 c-112 -272 -204 -498 -204 -502 0 -5 188 -8 418 -8 l417 0 269 656
c148 361 271 665 273 675 5 18 -3 19 -160 19 l-165 0 -43 -107z m-174 -402 c5
-8 -254 -653 -268 -667 -2 -3 -41 -4 -85 -2 l-81 3 129 315 c71 173 134 325
140 338 9 20 16 22 84 22 41 0 77 -4 81 -9z"/>
<path d="M11373 9703 l-30 -78 243 -5 c134 -3 245 -7 246 -10 0 -3 -4 -22 -11
-42 l-13 -38 -253 0 -253 0 -62 -152 c-35 -84 -105 -255 -156 -380 l-93 -228
418 0 419 0 20 48 c19 46 377 918 389 947 4 13 -50 15 -414 15 l-420 0 -30
-77z m357 -350 c0 -5 -37 -99 -82 -210 l-83 -203 -82 0 c-46 0 -83 3 -83 7 0
5 37 99 83 210 l82 203 83 0 c45 0 82 -3 82 -7z"/>
<path d="M12414 9742 c-37 -33 -53 -65 -157 -322 -64 -157 -149 -367 -191
-467 l-74 -183 166 0 167 0 169 413 c93 226 174 418 179 425 7 9 71 12 257 12
l247 0 32 75 c17 41 31 77 31 80 0 3 -177 5 -392 5 l-393 0 -41 -38z"/>
<path d="M14405 9770 c-11 -17 -405 -982 -405 -991 0 -5 74 -9 164 -9 l163 0
203 493 c111 270 204 498 207 505 6 15 -322 18 -332 2z"/>
<path d="M14916 9772 c-10 -16 -406 -986 -406 -994 0 -4 74 -8 164 -8 l164 0
46 113 c25 61 104 252 174 422 l127 310 74 3 c41 2 78 -1 83 -6 4 -4 -66 -190
-158 -413 -91 -222 -168 -410 -171 -417 -4 -10 30 -12 163 -10 l169 3 172 420
c95 231 173 424 173 429 0 5 -21 43 -47 83 l-48 73 -337 0 c-185 0 -339 -4
-342 -8z"/>
<path d="M16901 9758 c-31 -81 -63 -158 -223 -546 -98 -237 -178 -434 -178
-437 0 -3 188 -4 417 -3 l417 3 32 75 c18 41 33 78 33 83 1 4 -109 7 -244 7
-135 0 -245 4 -245 9 0 4 5 22 11 40 l11 31 248 0 c186 0 250 3 257 13 9 11
241 564 292 695 l21 52 -420 0 -420 0 -9 -22z m441 -143 c3 -3 -34 -99 -82
-213 l-87 -207 -81 -3 c-45 -2 -82 1 -82 5 0 13 161 397 172 411 10 12 149 18
160 7z"/>
<path d="M17928 9752 c-28 -20 -45 -46 -67 -97 -34 -82 -351 -854 -358 -873
-4 -10 30 -12 163 -10 l168 3 162 395 c89 217 169 407 178 423 l15 27 196 0
195 0 0 80 0 80 -307 0 -308 -1 -37 -27z"/>
</g>
</svg>
