<?xml version="1.0" standalone="no"?>
<!DOCTYPE svg PUBLIC "-//W3C//DTD SVG 20010904//EN"
 "http://www.w3.org/TR/2001/REC-SVG-20010904/DTD/svg10.dtd">
<svg version="1.0" xmlns="http://www.w3.org/2000/svg"
 width="1920.000000pt" height="987.000000pt" viewBox="0 0 1920.000000 987.000000"
 preserveAspectRatio="xMidYMid meet">

<g transform="translate(0.000000,987.000000) scale(0.100000,-0.100000)"
fill="#000000" stroke="none">
<path d="M3405 7250 c-172 -12 -488 -69 -820 -147 -82 -19 -184 -43 -225 -53
-177 -41 -278 -73 -322 -101 -91 -59 -160 -150 -243 -324 -150 -313 -185 -387
-185 -390 0 -1 -26 -58 -59 -126 -32 -68 -81 -173 -109 -234 -27 -60 -62 -136
-76 -167 -49 -108 -54 -148 -61 -553 -3 -211 -10 -384 -15 -389 -5 -5 -48 -12
-95 -14 -103 -5 -109 -12 -109 -117 0 -103 7 -111 102 -118 92 -7 128 -19 136
-44 3 -10 12 -68 21 -128 29 -219 67 -325 147 -407 87 -89 191 -119 423 -121
196 -2 239 23 321 186 39 76 47 87 67 83 12 -3 72 -14 132 -25 61 -11 209 -39
330 -62 300 -57 357 -67 450 -84 44 -8 130 -23 190 -35 190 -35 256 -47 390
-70 126 -21 131 -23 166 -60 19 -21 48 -71 64 -112 54 -135 96 -199 190 -293
183 -183 354 -247 655 -247 150 1 176 3 281 30 141 36 256 85 369 156 116 73
161 95 222 106 35 7 165 6 412 -5 199 -8 532 -19 741 -25 209 -5 438 -13 508
-16 l129 -6 36 -37 c77 -77 183 -136 319 -178 83 -25 100 -27 293 -27 242 0
315 14 464 92 152 80 312 258 380 425 12 29 25 58 29 65 6 9 79 12 308 12
l300 0 24 24 c42 42 64 178 43 260 -22 85 -41 91 -368 114 l-105 7 3 50 c1 28
21 158 43 290 58 339 56 317 24 376 -26 49 -27 54 -20 149 12 163 -24 244
-128 294 -45 21 -246 76 -387 105 -25 5 -90 19 -145 31 -229 50 -649 136
-1020 211 -165 32 -315 65 -334 71 -96 31 -226 205 -456 608 -138 243 -230
367 -308 417 -122 78 -561 227 -948 323 -736 182 -1572 270 -2174 230z m987
-170 c217 -19 420 -44 603 -74 83 -13 144 -25 330 -60 69 -14 204 -43 320 -70
33 -8 92 -21 130 -30 79 -18 277 -66 375 -91 88 -22 236 -73 284 -97 71 -36
130 -111 312 -398 100 -157 206 -324 237 -371 31 -48 53 -90 50 -93 -12 -11
-92 -6 -210 15 -115 20 -142 23 -368 54 -141 19 -350 40 -590 59 -208 17 -255
20 -1110 76 -330 22 -505 45 -561 73 -62 32 -107 79 -134 139 -42 97 -175 709
-167 771 6 44 37 83 82 103 42 19 160 17 417 -6z m-847 -97 c42 -20 54 -49 90
-213 13 -63 29 -135 35 -160 13 -56 76 -436 85 -511 5 -42 3 -58 -8 -67 -11
-9 -139 -12 -533 -10 l-519 3 -3 42 c-3 43 12 118 108 523 78 335 93 356 280
380 274 35 411 39 465 13z m-830 -135 c-18 -135 -132 -664 -163 -758 -13 -37
-30 -63 -54 -83 -32 -26 -43 -28 -169 -37 -168 -12 -550 -13 -567 -1 -31 19
60 286 180 526 97 194 149 276 183 290 29 13 165 47 310 79 39 8 88 19 110 25
22 5 71 9 108 10 l69 1 -7 -52z m-145 -1303 c91 -3 221 -10 290 -15 69 -6 226
-14 350 -20 124 -5 288 -14 365 -20 77 -5 226 -14 330 -20 402 -23 582 -38
601 -49 15 -9 -73 -11 -396 -6 -751 11 -1780 44 -1797 58 -16 12 -17 42 -2 68
8 17 17 19 52 15 23 -3 116 -8 207 -11z m3772 -64 c103 -11 192 -22 198 -26 6
-3 10 -45 10 -96 l0 -89 -41 0 c-49 0 -364 28 -396 35 -21 5 -23 11 -23 78 0
77 4 87 35 105 25 14 -2 15 217 -7z m531 -121 c51 -5 144 -14 207 -20 244 -24
396 -40 420 -45 14 -2 70 -9 125 -15 55 -5 168 -19 250 -30 83 -11 200 -27
260 -35 61 -8 162 -22 225 -30 63 -9 158 -22 210 -30 167 -23 255 -38 264 -47
13 -11 -87 -10 -176 2 -100 13 -458 54 -753 85 -165 18 -281 32 -420 50 -60 8
-198 26 -305 41 -423 55 -472 63 -464 75 7 12 44 11 157 -1z m-5128 -121 c52
-48 91 -112 134 -219 42 -105 75 -230 64 -241 -11 -11 -20 6 -54 96 -88 235
-180 327 -294 295 -76 -21 -132 -98 -175 -238 -30 -98 -45 -104 -37 -16 3 41
17 98 34 139 61 148 141 225 235 225 43 0 54 -5 93 -41z m3017 -44 c133 -35
240 -110 317 -224 94 -137 209 -374 274 -561 61 -173 70 -280 38 -435 -67
-324 -261 -534 -532 -576 -98 -15 -239 -6 -314 20 -247 87 -425 375 -425 686
0 289 160 604 367 719 157 88 424 91 562 6 18 -12 35 -19 38 -16 7 7 -54 94
-105 148 -172 185 -436 222 -641 91 -111 -71 -220 -208 -326 -408 -56 -106
-52 -102 -66 -88 -27 27 65 234 155 351 68 89 195 203 262 236 129 64 273 82
396 51z m4328 -57 c80 -17 90 -29 90 -107 0 -44 -4 -71 -12 -73 -24 -8 -276
30 -284 43 -3 5 -2 43 2 84 l7 76 76 -6 c42 -4 96 -11 121 -17z m-7347 -90
c72 -38 112 -150 128 -360 18 -235 -10 -451 -75 -573 -50 -96 -88 -125 -164
-125 -51 0 -58 3 -93 39 -67 71 -108 253 -109 481 0 262 84 492 199 542 26 11
91 9 114 -4z m4677 -49 c78 -48 123 -136 128 -252 8 -166 -89 -328 -207 -344
-155 -21 -272 107 -274 299 -1 66 3 84 32 142 70 142 222 215 321 155z m490
-69 c69 -5 199 -16 290 -25 91 -8 246 -21 345 -30 99 -8 232 -20 295 -25 63
-6 192 -17 285 -25 729 -62 735 -62 735 -85 0 -21 -46 -20 -510 20 -69 6 -204
17 -300 25 -210 18 -375 32 -610 50 -491 39 -786 67 -794 75 -5 5 -6 16 -2 26
6 14 16 16 74 10 37 -3 123 -11 192 -16z m-60 -105 c102 -8 268 -22 370 -30
102 -8 244 -20 315 -25 72 -6 209 -17 305 -25 252 -21 410 -34 615 -50 241
-19 387 -34 393 -39 2 -3 2 -13 -2 -22 -5 -14 -16 -15 -69 -10 -34 4 -152 13
-262 21 -110 8 -288 21 -395 30 -348 28 -566 45 -762 60 -106 8 -249 19 -318
25 -69 5 -183 15 -255 20 -71 6 -133 14 -139 20 -9 9 -1 40 11 40 4 0 91 -7
193 -15z m2254 -101 c38 -39 49 -93 43 -209 -9 -171 -50 -259 -119 -259 -48 0
-86 27 -109 77 -14 33 -19 66 -19 153 0 182 43 263 141 264 26 0 44 -7 63 -26z
m-2279 -4 c66 -6 219 -17 340 -25 224 -15 350 -24 715 -50 299 -22 604 -44
775 -55 168 -12 185 -15 185 -36 0 -17 -83 -18 -270 -4 -69 6 -199 15 -290 20
-91 6 -262 17 -380 25 -571 40 -665 46 -805 55 -333 21 -460 32 -469 40 -5 5
-6 16 -3 24 8 19 34 20 202 6z m55 -110 c372 -25 474 -31 625 -40 88 -6 216
-14 285 -20 69 -5 166 -11 215 -14 50 -3 194 -12 320 -21 127 -8 288 -19 358
-24 126 -8 157 -17 142 -41 -8 -13 -22 -12 -445 15 -124 8 -335 22 -470 30
-238 15 -530 33 -870 55 -91 6 -210 13 -265 16 -143 7 -165 12 -165 33 0 28
11 32 65 27 27 -3 120 -10 205 -16z m-35 -100 c110 -6 297 -17 415 -25 118 -8
271 -17 340 -20 69 -3 179 -10 245 -15 66 -6 203 -14 305 -20 388 -21 644 -40
653 -49 18 -18 -4 -31 -51 -31 -26 0 -150 6 -277 14 -267 17 -507 31 -870 51
-143 8 -334 19 -425 24 -91 6 -250 15 -355 21 -215 13 -235 15 -235 33 0 19
22 38 40 33 8 -3 105 -10 215 -16z m125 -110 c80 -5 219 -14 310 -20 191 -12
554 -35 785 -50 88 -6 273 -17 410 -25 302 -18 327 -21 323 -43 -4 -19 -79
-19 -363 -1 -82 5 -262 16 -400 24 -137 8 -360 22 -495 30 -135 8 -357 22
-495 30 -483 28 -474 27 -461 60 7 19 -4 20 386 -5z m-1370 -227 c77 -204 104
-218 455 -229 124 -4 228 -10 230 -15 3 -4 -7 -22 -22 -40 l-27 -32 -166 7
c-304 11 -393 30 -429 90 -22 36 -101 261 -101 288 0 45 29 11 60 -69z m1115
32 c466 -22 1111 -56 1515 -80 540 -33 841 -57 1173 -97 70 -8 95 -14 87 -22
-15 -15 -210 -14 -475 2 -227 14 -399 24 -790 47 -406 23 -997 60 -1210 76
-77 5 -201 14 -275 20 -74 5 -186 16 -248 24 -62 8 -119 15 -126 15 -7 0 -21
7 -32 15 -18 13 -16 14 21 15 22 0 184 -7 360 -15z m85 -290 c398 -16 690 -28
1145 -50 171 -8 407 -20 525 -25 303 -14 761 -39 850 -46 72 -5 216 -31 233
-41 29 -17 -32 -21 -208 -13 -110 5 -333 14 -495 20 -162 5 -392 14 -510 20
-118 5 -332 15 -475 20 -383 15 -1305 54 -1488 63 -68 4 -83 14 -61 45 18 27
2 26 484 7z"/>
<path d="M4687 4446 c-68 -25 -130 -81 -170 -151 -19 -35 -22 -55 -22 -155 0
-103 3 -121 26 -170 49 -105 133 -164 234 -164 76 -1 141 31 200 96 54 60 71
98 86 186 19 116 -14 235 -83 299 -60 56 -198 86 -271 59z"/>
<path d="M1627 4753 c-36 -41 -60 -116 -65 -208 -7 -147 25 -269 75 -281 54
-14 93 65 113 230 19 156 -12 268 -76 274 -19 2 -36 -3 -47 -15z"/>
<path d="M10685 5704 c-55 -41 -109 -83 -120 -92 -11 -10 -116 -251 -243 -560
l-224 -543 52 -80 53 -79 246 0 246 0 119 80 120 79 36 88 c20 48 44 107 53
131 l17 42 -164 0 -164 0 -20 -47 c-11 -27 -34 -83 -52 -125 l-32 -78 -84 0
c-46 0 -84 3 -84 7 0 4 100 252 223 550 l222 543 87 0 c87 0 87 0 79 -22 -5
-13 -28 -68 -50 -122 -23 -55 -41 -101 -41 -103 0 -1 74 -3 164 -3 l164 0 52
130 52 130 -48 75 -49 75 -255 0 -255 -1 -100 -75z"/>
<path d="M13552 5708 c-162 -393 -552 -1347 -552 -1352 0 -4 73 -5 162 -4
l163 3 51 125 52 125 83 3 84 3 32 79 31 80 -80 0 c-72 0 -80 2 -74 18 4 9 82
200 173 425 l167 407 83 0 c65 0 83 -3 83 -14 0 -8 -20 -62 -45 -122 -25 -59
-45 -109 -45 -110 0 -2 73 -4 163 -4 l162 0 77 188 c43 103 80 195 84 205 6
16 -18 17 -409 17 l-415 0 -30 -72z"/>
<path d="M14543 5683 c-4 -10 -26 -65 -50 -122 -24 -57 -43 -106 -43 -107 0
-2 73 -4 163 -4 l163 0 47 118 c26 64 47 121 47 125 0 4 -72 7 -160 7 -144 0
-161 -2 -167 -17z"/>
<path d="M16540 5658 c-10 -24 -41 -100 -70 -170 l-52 -128 -253 0 -252 0
-193 -472 c-107 -260 -200 -488 -207 -506 l-13 -32 416 2 416 3 269 655 c148
360 271 663 275 673 5 16 -7 17 -156 17 l-161 0 -19 -42z m-197 -465 c2 -5
-57 -156 -132 -338 l-136 -330 -88 -3 c-48 -1 -87 0 -87 4 0 12 262 648 273
662 10 13 163 18 170 5z"/>
<path d="M11401 5343 c-5 -10 -20 -46 -34 -80 l-26 -63 250 0 c137 0 249 -4
249 -9 0 -5 -7 -25 -15 -45 l-15 -36 -249 0 c-187 0 -251 -3 -258 -12 -10 -13
-292 -699 -301 -730 -4 -17 20 -18 410 -18 l414 0 194 473 c106 259 200 487
207 505 l13 32 -415 0 c-384 0 -415 -1 -424 -17z m332 -400 c2 -5 -34 -101
-81 -215 l-85 -208 -83 0 c-47 0 -84 4 -84 10 0 8 156 395 167 413 2 4 40 7
83 7 43 0 81 -3 83 -7z"/>
<path d="M12424 5329 c-28 -21 -47 -47 -62 -82 -12 -29 -96 -234 -188 -457
-91 -223 -169 -413 -171 -423 -5 -16 6 -17 158 -15 l164 3 127 310 c70 171
149 361 174 423 l46 112 253 0 253 0 10 28 c5 15 19 51 31 80 l21 52 -388 0
-387 -1 -41 -30z"/>
<path d="M14382 5288 c-99 -237 -382 -930 -382 -933 0 -3 72 -5 160 -5 141 0
160 2 169 18 17 32 401 972 401 982 0 6 -61 10 -159 10 l-159 0 -30 -72z"/>
<path d="M14917 5348 c-3 -7 -95 -233 -206 -502 -111 -269 -201 -490 -201
-492 0 -2 72 -4 160 -4 l159 0 14 28 c8 15 88 206 177 425 l163 397 83 0 c63
0 84 -3 84 -13 0 -7 -74 -194 -165 -415 -91 -222 -165 -407 -165 -412 0 -16
317 -13 323 3 3 6 80 194 172 417 92 223 169 410 171 416 3 6 -18 45 -45 87
l-51 77 -334 0 c-258 0 -335 -3 -339 -12z"/>
<path d="M16885 5288 c-15 -40 -104 -257 -197 -483 -94 -225 -174 -420 -179
-432 l-9 -23 414 0 414 0 31 74 c17 41 31 79 31 85 0 8 -78 11 -245 11 -135 0
-245 3 -245 8 1 4 9 23 18 42 l17 35 250 3 251 2 148 357 c82 196 151 365 154
375 4 17 -13 18 -410 18 l-415 0 -28 -72z m461 -105 c-4 -10 -43 -107 -89
-215 l-82 -198 -82 0 c-58 0 -83 4 -83 12 0 10 85 221 149 371 l20 47 87 0
c78 0 86 -2 80 -17z"/>
<path d="M17923 5324 c-24 -20 -43 -39 -43 -44 0 -4 -83 -211 -185 -458 -102
-248 -185 -455 -185 -461 0 -7 52 -11 159 -11 l159 0 71 173 c39 94 117 285
174 422 l103 250 203 3 202 2 -3 78 -3 77 -305 2 -305 3 -42 -36z"/>
</g>
</svg>
